<svg style="max-height: 500px" class="svg-animations" viewBox="16.189006106439464 119.4 247.03224132789106 54.6" version="1.1" xmlns:xlink="http://www.w3.org/1999/xlink" xmlns="http://www.w3.org/2000/svg" width="247.03224132789106" height="54.6"><svg y="125" x="25.033000183105457" style="fill: rgb(255, 255, 255);" height="50" width="50" viewBox="0 0 136 141"><svg viewBox="0 0 136 136" height="136" width="136" xmlns="http://www.w3.org/2000/svg">
	<path d="M134.06 0H1.94045C0.866736 0 0 0.866654 0 1.94027V134.047C0 135.12 0.866736 135.987 1.94045 135.987H78.7695V136H108.976V135.987H134.06C135.133 135.987 136 135.12 136 134.047V1.94027C136 0.866654 135.133 0 134.06 0ZM92.0681 76.2914L78.7695 67.9095V131.693H69.6235V25.12L92.0681 50.8221V76.2914ZM105.095 132.107H95.949V83.3281L105.095 89.0972V132.107ZM92.0681 131.693H82.6504V74.9462L92.0681 80.8834V131.693ZM65.3674 131.796H56.3767V67.1592L42.9229 75.7093V66.7453L65.3674 45.868V131.796ZM52.4958 74.2218V131.809H42.9229V80.3013L52.4958 74.2218ZM39.029 131.796H30.0382V88.4763L39.029 82.7719V131.796ZM132.119 132.107H108.976V86.9629L95.949 78.7491V49.3734L65.7426 14.7849V40.2024L39.0419 65.0378V78.167L26.1703 86.342V132.107H3.88091V3.88054H132.119V132.107Z"/>
	</svg></svg><svg y="133.68000030517578" x="85.03300018310546" style="fill: rgb(255, 255, 255);"><path d="M24.77 26L5.63 26Q4.03 26 2.91 24.88Q1.79 23.76 1.79 22.16L1.79 22.16L1.79 6.80Q1.79 5.20 2.91 4.08Q4.03 2.96 5.63 2.96L5.63 2.96L24.77 2.96L24.77 5.55L5.63 5.55Q5.12 5.55 4.75 5.92Q4.38 6.29 4.38 6.80L4.38 6.80L4.38 22.16Q4.38 22.67 4.75 23.04Q5.12 23.41 5.63 23.41L5.63 23.41L24.77 23.41L24.77 26ZM43.78 26L40.77 26L27.42 2.96L30.46 2.96L42.27 23.47L54.05 2.96L57.09 2.96L43.78 26ZM75.17 26L60.13 26L60.13 1.36L62.75 1.36L62.75 7.44L75.17 7.44Q76.77 7.44 77.90 8.58Q79.04 9.71 79.04 11.31L79.04 11.31L79.04 22.13Q79.04 23.73 77.90 24.86Q76.77 26 75.17 26L75.17 26ZM64.03 23.38L64.03 23.38L75.17 23.38Q75.68 23.38 76.05 23.01Q76.42 22.64 76.42 22.13L76.42 22.13L76.42 11.31Q76.42 10.80 76.05 10.43Q75.68 10.06 75.17 10.06L75.17 10.06L64.03 10.06Q63.52 10.06 63.14 10.43Q62.75 10.80 62.75 11.31L62.75 11.31L62.75 22.13Q62.75 22.64 63.14 23.01Q63.52 23.38 64.03 23.38ZM96.45 26L85.31 26Q83.71 26 82.58 24.86Q81.44 23.73 81.44 22.13L81.44 22.13L81.44 7.44L84.06 7.44L84.06 22.13Q84.06 22.64 84.43 23.01Q84.80 23.38 85.31 23.38L85.31 23.38L96.45 23.38Q96.96 23.38 97.34 23.01Q97.73 22.64 97.73 22.13L97.73 22.13L97.73 7.44L100.35 7.44L100.35 22.13Q100.35 23.73 99.22 24.86Q98.08 26 96.45 26L96.45 26ZM106.27 26L103.65 26L103.65 7.44L106.27 7.44L106.27 26ZM106.27 3.98L103.65 3.98L103.65 1.36L106.27 1.36L106.27 3.98ZM117.31 26L114.18 26Q112.58 26 111.44 24.86Q110.30 23.73 110.30 22.13L110.30 22.13L110.30 1.36L112.93 1.36L112.93 22.13Q112.93 22.64 113.30 23.01Q113.66 23.38 114.18 23.38L114.18 23.38L117.31 23.38L117.31 26ZM138.11 26L123.10 26Q121.47 26 120.34 24.86Q119.20 23.73 119.20 22.13L119.20 22.13L119.20 11.31Q119.20 9.71 120.34 8.58Q121.47 7.44 123.10 7.44L123.10 7.44L135.49 7.44L135.49 1.36L138.11 1.36L138.11 26ZM123.10 23.38L123.10 23.38L134.24 23.38Q134.75 23.38 135.12 23.01Q135.49 22.64 135.49 22.13L135.49 22.13L135.49 11.31Q135.49 10.80 135.12 10.43Q134.75 10.06 134.24 10.06L134.24 10.06L123.10 10.06Q122.59 10.06 122.22 10.43Q121.86 10.80 121.86 11.31L121.86 11.31L121.86 22.13Q121.86 22.64 122.22 23.01Q122.59 23.38 123.10 23.38ZM159.71 26L144.67 26Q143.07 26 141.94 24.86Q140.80 23.73 140.80 22.13L140.80 22.13L140.80 11.31Q140.80 9.71 141.94 8.58Q143.07 7.44 144.67 7.44L144.67 7.44L155.81 7.44Q157.44 7.44 158.58 8.58Q159.71 9.71 159.71 11.31L159.71 11.31L159.71 18.03L143.42 18.03L143.42 22.13Q143.42 22.64 143.79 23.01Q144.16 23.38 144.67 23.38L144.67 23.38L159.71 23.38L159.71 26ZM143.42 11.31L143.42 15.41L157.06 15.41L157.06 11.31Q157.06 10.80 156.69 10.43Q156.32 10.06 155.81 10.06L155.81 10.06L144.67 10.06Q144.16 10.06 143.79 10.43Q143.42 10.80 143.42 11.31L143.42 11.31ZM165.44 26L162.82 26L162.82 11.31Q162.82 9.71 163.95 8.58Q165.09 7.44 166.69 7.44L166.69 7.44L177.12 7.44L177.12 10.06L166.69 10.06Q166.18 10.06 165.81 10.43Q165.44 10.80 165.44 11.31L165.44 11.31L165.44 26Z"/></svg><text y="166.31999969482422" x="175.1980010986328" font-size="16px" font-family="sans-serif" fill="#ffffff"><tspan x="175.1980010986328" dy="0"/></text></svg>